<?xml version="1.0" standalone="no"?>
<!DOCTYPE svg PUBLIC "-//W3C//DTD SVG 20010904//EN"
 "http://www.w3.org/TR/2001/REC-SVG-20010904/DTD/svg10.dtd">
<svg version="1.0" xmlns="http://www.w3.org/2000/svg"
 width="700.000000pt" height="700.000000pt" viewBox="0 0 700.000000 700.000000"
 preserveAspectRatio="xMidYMid meet">
<metadata>
Created by potrace 1.11, written by Peter Selinger 2001-2013
</metadata>
<g transform="translate(0.000000,700.000000) scale(0.100000,-0.100000)"
fill="#000000" stroke="none">
<path d="M764 6990 c-138 -19 -258 -64 -373 -140 -188 -126 -309 -302 -368
-535 -17 -66 -18 -218 -18 -2815 0 -2597 1 -2749 18 -2815 59 -233 180 -409
368 -535 90 -60 177 -97 294 -127 66 -17 218 -18 2815 -18 2597 0 2749 1 2815
18 117 30 204 67 294 127 188 126 309 302 368 535 17 66 18 218 18 2815 0
2597 -1 2749 -18 2815 -30 117 -67 204 -127 294 -125 186 -296 305 -530 368
-61 16 -226 18 -2780 19 -1493 1 -2743 -2 -2776 -6z m5796 -3055 l0 -435
-3060 0 -3060 0 0 435 0 435 3060 0 3060 0 0 -435z m-3930 -1310 l0 -435
-1095 0 -1095 0 0 435 0 435 1095 0 1095 0 0 -435z m3930 0 l0 -435 -1750 0
-1750 0 0 435 0 435 1750 0 1750 0 0 -435z m-5250 -1315 l0 -440 -435 0 -435
0 0 440 0 440 435 0 435 0 0 -440z m1318 3 l-3 -438 -437 -3 -438 -2 0 440 0
440 440 0 440 0 -2 -437z m1750 0 l-3 -438 -657 -3 -658 -2 0 440 0 440 660 0
660 0 -2 -437z m2182 -3 l0 -440 -875 0 -875 0 0 440 0 440 875 0 875 0 0
-440z"/>
</g>
</svg>
